<svg xmlns="http://www.w3.org/2000/svg" viewBox="0 0 96 96" width="96" height="96">
  <defs>
    <clipPath id="eic2">
      <path d="M20,48 Q34,14 48,14 Q62,14 76,48 Q62,82 48,82 Q34,82 20,48 Z"/>
    </clipPath>
  </defs>
  <rect width="96" height="96" rx="20" fill="#e85d3a"/>
  <line x1="4" y1="6" x2="30" y2="90" stroke="#ffffff" stroke-width="8" stroke-linecap="round"/>
  <line x1="30" y1="6" x2="4" y2="90" stroke="#ffffff" stroke-width="8" stroke-linecap="round"/>
  <path d="M30,6 Q48,0 66,6" fill="none" stroke="#ffffff" stroke-width="8" stroke-linecap="round"/>
  <path d="M30,90 Q48,96 66,90" fill="none" stroke="#ffffff" stroke-width="8" stroke-linecap="round"/>
  <path d="M20,48 Q34,14 48,14 Q62,14 76,48 Q62,82 48,82 Q34,82 20,48 Z" fill="#ffffff"/>
  <ellipse cx="48" cy="48" rx="19" ry="19" fill="#1a1917" clip-path="url(#eic2)"/>
  <ellipse cx="48" cy="48" rx="9" ry="9" fill="#e85d3a"/>
  <ellipse cx="53" cy="42" rx="3.5" ry="3.5" fill="#ffffff" opacity="0.7"/>
  <path d="M20,48 Q34,14 48,14 Q62,14 76,48 Q62,82 48,82 Q34,82 20,48 Z" fill="none" stroke="#e85d3a" stroke-width="1.5"/>
  <line x1="66" y1="6" x2="92" y2="90" stroke="#ffffff" stroke-width="8" stroke-linecap="round"/>
  <line x1="92" y1="6" x2="66" y2="90" stroke="#ffffff" stroke-width="8" stroke-linecap="round"/>
</svg>
